# xmcd
#
# Track frame offsets: 
#        150
#        18914
#        36793
#        66018
#
# Disc length: 1370 seconds
#
# Revision: 1
# Processed by: cddbd v1.4PL0 Copyright (c) Steve Scherf et al.
# Submitted via: ExactAudioCopy v0.90b4
#
DISCID=28055804
DTITLE=Shania Twain - Forever and For Always
DYEAR=1900
DGENRE=Country
TTITLE0=Forever and For Always
TTITLE1=Man! I Feel Like A Woman (Live)
TTITLE2=Don't Be Stupid (Live)
TTITLE3=Forever and For Always (Video)
EXTD=
EXTT0=
EXTT1=
EXTT2=
EXTT3=
PLAYORDER=
